<mxfile host="Electron" agent="Mozilla/5.0 (Macintosh; Intel Mac OS X 10_15_7) AppleWebKit/537.36 (KHTML, like Gecko) draw.io/26.0.16 Chrome/132.0.6834.196 Electron/34.2.0 Safari/537.36" version="26.0.16">
  <diagram name="Page-1" id="_e-w09hOYbzFDcze72WV">
    <mxGraphModel dx="2026" dy="761" grid="1" gridSize="10" guides="1" tooltips="1" connect="1" arrows="1" fold="1" page="1" pageScale="1" pageWidth="827" pageHeight="1169" math="0" shadow="0">
      <root>
        <mxCell id="0" />
        <mxCell id="1" parent="0" />
        <mxCell id="cGl2F8qCMzr2VDQTmDil-1" value="" style="rounded=0;whiteSpace=wrap;html=1;dashed=1;dashPattern=5 5;fillColor=none;strokeColor=#000000;" parent="1" vertex="1">
          <mxGeometry x="30" y="30" width="330" height="370" as="geometry" />
        </mxCell>
        <mxCell id="cGl2F8qCMzr2VDQTmDil-2" value="" style="rounded=0;whiteSpace=wrap;html=1;dashed=1;dashPattern=5 5;fillColor=none;strokeColor=#000000;" parent="1" vertex="1">
          <mxGeometry x="440" y="30" width="360" height="370" as="geometry" />
        </mxCell>
        <mxCell id="cGl2F8qCMzr2VDQTmDil-3" value="Zorgaanbieder" style="text;html=1;strokeColor=none;fillColor=none;align=center;verticalAlign=middle;whiteSpace=wrap;rounded=0;fontSize=20;fontStyle=0;" parent="1" vertex="1">
          <mxGeometry x="550" y="50" width="120" height="30" as="geometry" />
        </mxCell>
        <mxCell id="VrAfhA0oGHs-9sHp-KVh-2" style="edgeStyle=orthogonalEdgeStyle;rounded=0;orthogonalLoop=1;jettySize=auto;html=1;exitX=0;exitY=0.75;exitDx=0;exitDy=0;entryX=0.5;entryY=0;entryDx=0;entryDy=0;strokeWidth=3;" parent="1" source="cGl2F8qCMzr2VDQTmDil-5" target="VrAfhA0oGHs-9sHp-KVh-1" edge="1">
          <mxGeometry relative="1" as="geometry" />
        </mxCell>
        <mxCell id="VrAfhA0oGHs-9sHp-KVh-3" value="&lt;b style=&quot;font-size: 12px;&quot;&gt;taken&lt;/b&gt;" style="edgeLabel;html=1;align=center;verticalAlign=middle;resizable=0;points=[];" parent="VrAfhA0oGHs-9sHp-KVh-2" vertex="1" connectable="0">
          <mxGeometry x="0.1692" y="1" relative="1" as="geometry">
            <mxPoint y="4" as="offset" />
          </mxGeometry>
        </mxCell>
        <mxCell id="cGl2F8qCMzr2VDQTmDil-5" value="DVA" style="rounded=1;whiteSpace=wrap;html=1;fillColor=#B3D9FF;strokeColor=#000000;fontSize=18;arcSize=15;" parent="1" vertex="1">
          <mxGeometry x="470" y="180" width="120" height="50" as="geometry" />
        </mxCell>
        <mxCell id="cGl2F8qCMzr2VDQTmDil-6" value="PGO" style="rounded=1;whiteSpace=wrap;html=1;fillColor=#B3D9FF;strokeColor=#000000;fontSize=18;arcSize=15;" parent="1" vertex="1">
          <mxGeometry x="650" y="180" width="120" height="50" as="geometry" />
        </mxCell>
        <mxCell id="cGl2F8qCMzr2VDQTmDil-7" value="Module" style="rounded=0;whiteSpace=wrap;html=1;fillColor=#FFD700;strokeColor=#000000;fontSize=18;" parent="1" vertex="1">
          <mxGeometry x="560" y="310" width="120" height="60" as="geometry" />
        </mxCell>
        <mxCell id="cGl2F8qCMzr2VDQTmDil-8" value="&lt;b&gt;taken&lt;/b&gt;" style="edgeStyle=elbowEdgeStyle;rounded=0;orthogonalLoop=1;jettySize=auto;html=1;entryX=0;entryY=0.5;entryDx=0;entryDy=0;strokeColor=#000000;fontSize=12;startArrow=classic;startFill=0;endArrow=none;strokeWidth=3;elbow=vertical;exitX=1;exitY=0.5;exitDx=0;exitDy=0;exitPerimeter=0;" parent="1" source="KPfM0vzUklK0Ox-js9oj-8" target="cGl2F8qCMzr2VDQTmDil-5" edge="1">
          <mxGeometry x="0.4418" y="-15" relative="1" as="geometry">
            <mxPoint x="360" y="210" as="sourcePoint" />
            <mxPoint x="460" y="101" as="targetPoint" />
            <mxPoint as="offset" />
          </mxGeometry>
        </mxCell>
        <mxCell id="cGl2F8qCMzr2VDQTmDil-9" value="taken" style="edgeStyle=orthogonalEdgeStyle;rounded=0;orthogonalLoop=1;jettySize=auto;html=1;exitX=1;exitY=0.5;exitDx=0;exitDy=0;entryX=0;entryY=0.5;entryDx=0;entryDy=0;strokeColor=#000000;fontSize=12;" parent="1" source="cGl2F8qCMzr2VDQTmDil-5" target="cGl2F8qCMzr2VDQTmDil-6" edge="1">
          <mxGeometry relative="1" as="geometry" />
        </mxCell>
        <mxCell id="cGl2F8qCMzr2VDQTmDil-10" value="launch" style="rounded=0;orthogonalLoop=1;jettySize=auto;html=1;exitX=0.25;exitY=1;exitDx=0;exitDy=0;strokeColor=#000000;strokeWidth=2;fontSize=11;entryX=0.75;entryY=0;entryDx=0;entryDy=0;" parent="1" source="cGl2F8qCMzr2VDQTmDil-6" target="cGl2F8qCMzr2VDQTmDil-7" edge="1">
          <mxGeometry x="0.1" y="10" relative="1" as="geometry">
            <mxPoint as="offset" />
            <mxPoint x="650" y="300" as="targetPoint" />
          </mxGeometry>
        </mxCell>
        <mxCell id="cGl2F8qCMzr2VDQTmDil-11" value="launch" style="rounded=0;orthogonalLoop=1;jettySize=auto;html=1;exitX=0.25;exitY=1;exitDx=0;exitDy=0;entryX=0.008;entryY=0.367;entryDx=0;entryDy=0;strokeColor=#000000;dashed=1;dashPattern=3 3;fontSize=11;entryPerimeter=0;edgeStyle=orthogonalEdgeStyle;" parent="1" source="cGl2F8qCMzr2VDQTmDil-5" target="cGl2F8qCMzr2VDQTmDil-7" edge="1">
          <mxGeometry x="-0.1041" y="5" relative="1" as="geometry">
            <mxPoint as="offset" />
          </mxGeometry>
        </mxCell>
        <mxCell id="KPfM0vzUklK0Ox-js9oj-1" value="Koppeltaal" style="text;html=1;strokeColor=none;fillColor=none;align=center;verticalAlign=middle;whiteSpace=wrap;rounded=0;fontSize=20;fontStyle=0;" parent="1" vertex="1">
          <mxGeometry x="160" y="50" width="120" height="30" as="geometry" />
        </mxCell>
        <mxCell id="KPfM0vzUklK0Ox-js9oj-2" value="&lt;div style=&quot;line-height: 70%;&quot;&gt;&lt;div&gt;&lt;span&gt;&lt;font style=&quot;font-size: 14px;&quot;&gt;Behandelportaal&lt;/font&gt;&lt;/span&gt;&lt;/div&gt;&lt;/div&gt;" style="rounded=0;whiteSpace=wrap;html=1;fillColor=#d5e8d4;strokeColor=#82b366;fontSize=18;opacity=30;" parent="1" vertex="1">
          <mxGeometry x="50" y="190" width="120" height="50" as="geometry" />
        </mxCell>
        <mxCell id="KPfM0vzUklK0Ox-js9oj-3" value="" style="rounded=0;whiteSpace=wrap;html=1;fillColor=#FFD700;strokeColor=#000000;fontSize=18;opacity=30;" parent="1" vertex="1">
          <mxGeometry x="135" y="310" width="120" height="60" as="geometry" />
        </mxCell>
        <mxCell id="KPfM0vzUklK0Ox-js9oj-4" value="Maakt taak" style="shape=callout;whiteSpace=wrap;html=1;perimeter=calloutPerimeter;fillColor=#f5f5f5;strokeColor=#666666;fontColor=#333333;position2=0.67;" parent="1" vertex="1">
          <mxGeometry x="-10" y="120" width="120" height="80" as="geometry" />
        </mxCell>
        <mxCell id="KPfM0vzUklK0Ox-js9oj-6" value="SMART on FHIR&amp;nbsp;&lt;div&gt;(app &amp;amp; backend)&lt;/div&gt;" style="rounded=0;orthogonalLoop=1;jettySize=auto;html=1;entryX=0.75;entryY=0;entryDx=0;entryDy=0;strokeColor=#000000;strokeWidth=2;fontSize=11;startArrow=classic;startFill=1;exitX=0.5;exitY=1;exitDx=0;exitDy=0;exitPerimeter=0;opacity=10;" parent="1" source="KPfM0vzUklK0Ox-js9oj-8" target="KPfM0vzUklK0Ox-js9oj-3" edge="1">
          <mxGeometry x="-0.0737" y="10" relative="1" as="geometry">
            <mxPoint as="offset" />
            <mxPoint x="270" y="230" as="sourcePoint" />
            <mxPoint x="110" y="400" as="targetPoint" />
          </mxGeometry>
        </mxCell>
        <mxCell id="KPfM0vzUklK0Ox-js9oj-7" value="launch" style="rounded=0;orthogonalLoop=1;jettySize=auto;html=1;exitX=0.5;exitY=1;exitDx=0;exitDy=0;strokeColor=#000000;strokeWidth=2;fontSize=11;opacity=10;" parent="1" source="KPfM0vzUklK0Ox-js9oj-2" target="KPfM0vzUklK0Ox-js9oj-3" edge="1">
          <mxGeometry x="-0.0069" y="-1" relative="1" as="geometry">
            <mxPoint as="offset" />
            <mxPoint x="650" y="390" as="targetPoint" />
            <mxPoint x="680" y="290" as="sourcePoint" />
          </mxGeometry>
        </mxCell>
        <mxCell id="KPfM0vzUklK0Ox-js9oj-8" value="FHIR Service" style="shape=cylinder3;whiteSpace=wrap;html=1;boundedLbl=1;backgroundOutline=1;size=15;fillColor=#d5e8d4;strokeColor=#82b366;fontSize=15;" parent="1" vertex="1">
          <mxGeometry x="270" y="165" width="60" height="80" as="geometry" />
        </mxCell>
        <mxCell id="BYSqtYEgL_toLtNQTXlD-6" style="edgeStyle=orthogonalEdgeStyle;rounded=0;orthogonalLoop=1;jettySize=auto;html=1;entryX=0.5;entryY=1;entryDx=0;entryDy=0;" parent="1" source="VrAfhA0oGHs-9sHp-KVh-1" target="cGl2F8qCMzr2VDQTmDil-7" edge="1">
          <mxGeometry relative="1" as="geometry" />
        </mxCell>
        <mxCell id="BYSqtYEgL_toLtNQTXlD-7" value="launch" style="edgeLabel;html=1;align=center;verticalAlign=middle;resizable=0;points=[];" parent="BYSqtYEgL_toLtNQTXlD-6" vertex="1" connectable="0">
          <mxGeometry x="-0.517" y="-2" relative="1" as="geometry">
            <mxPoint x="16" y="-2" as="offset" />
          </mxGeometry>
        </mxCell>
        <mxCell id="VrAfhA0oGHs-9sHp-KVh-1" value="&lt;div style=&quot;line-height: 70%;&quot;&gt;&lt;div&gt;&lt;span&gt;&lt;font style=&quot;font-size: 14px;&quot;&gt;Xis&lt;/font&gt;&lt;/span&gt;&lt;/div&gt;&lt;/div&gt;" style="rounded=0;whiteSpace=wrap;html=1;fillColor=#d5e8d4;strokeColor=#82b366;fontSize=18;" parent="1" vertex="1">
          <mxGeometry x="340" y="450" width="120" height="50" as="geometry" />
        </mxCell>
        <mxCell id="BYSqtYEgL_toLtNQTXlD-2" style="edgeStyle=orthogonalEdgeStyle;rounded=0;orthogonalLoop=1;jettySize=auto;html=1;" parent="1" source="BYSqtYEgL_toLtNQTXlD-1" target="KPfM0vzUklK0Ox-js9oj-3" edge="1">
          <mxGeometry relative="1" as="geometry" />
        </mxCell>
        <mxCell id="BYSqtYEgL_toLtNQTXlD-3" value="launch" style="edgeLabel;html=1;align=center;verticalAlign=middle;resizable=0;points=[];" parent="BYSqtYEgL_toLtNQTXlD-2" vertex="1" connectable="0">
          <mxGeometry x="-0.1" relative="1" as="geometry">
            <mxPoint as="offset" />
          </mxGeometry>
        </mxCell>
        <mxCell id="BYSqtYEgL_toLtNQTXlD-1" value="&lt;div style=&quot;line-height: 100%;&quot;&gt;&lt;font style=&quot;font-size: 13px;&quot;&gt;Clientportaal&lt;/font&gt;&lt;/div&gt;" style="rounded=1;whiteSpace=wrap;html=1;fillColor=#B3D9FF;strokeColor=#000000;fontSize=18;arcSize=15;" parent="1" vertex="1">
          <mxGeometry x="135" y="100" width="120" height="50" as="geometry" />
        </mxCell>
        <mxCell id="BYSqtYEgL_toLtNQTXlD-5" value="Maakt taak" style="shape=callout;whiteSpace=wrap;html=1;perimeter=calloutPerimeter;fillColor=#f5f5f5;strokeColor=#666666;fontColor=#333333;position2=0.83;" parent="1" vertex="1">
          <mxGeometry x="260" y="380" width="120" height="80" as="geometry" />
        </mxCell>
        <mxCell id="BYSqtYEgL_toLtNQTXlD-8" value="Opmerking: taken in koppeltaal in de kunnen zowel vanaf de PGO als het clientportaal gestart worden. Taken die in het XIS / HIS aangemaakt worden niet. De moduleleverancier aan de linkerkant zie dus meer taken dan in koppeltaal" style="text;html=1;align=left;verticalAlign=middle;whiteSpace=wrap;rounded=0;" parent="1" vertex="1">
          <mxGeometry x="90" y="540" width="510" height="90" as="geometry" />
        </mxCell>
        <mxCell id="W9MRH6AJyIR-hbiFwIDO-1" value="Optie 1b Coexistentie XIS en Koppeltaal (als deelnemer)" style="text;html=1;align=center;verticalAlign=middle;whiteSpace=wrap;rounded=0;fontStyle=3;fontSize=20;" parent="1" vertex="1">
          <mxGeometry x="20" width="550" height="30" as="geometry" />
        </mxCell>
      </root>
    </mxGraphModel>
  </diagram>
</mxfile>
